<?xml version="1.0" standalone="no"?>
<!DOCTYPE svg PUBLIC "-//W3C//DTD SVG 20010904//EN"
 "http://www.w3.org/TR/2001/REC-SVG-20010904/DTD/svg10.dtd">
<svg version="1.0" xmlns="http://www.w3.org/2000/svg"
 width="1024.000000pt" height="1024.000000pt" viewBox="0 0 1024.000000 1024.000000"
 preserveAspectRatio="xMidYMid meet">
<metadata>
Created by potrace 1.16, written by Peter Selinger 2001-2019
</metadata>
<g transform="translate(0.000000,1024.000000) scale(0.100000,-0.100000)"
fill="#000000" stroke="none">
<path d="M2963 7773 c3 -10 12 -40 20 -68 8 -27 46 -153 85 -280 38 -126 107
-351 152 -500 45 -148 113 -371 152 -495 110 -348 111 -338 -48 -515 l-114
-129 5 -56 c7 -65 55 -775 55 -809 0 -16 37 -61 128 -155 241 -247 262 -271
262 -299 0 -22 48 -450 65 -583 6 -41 10 -45 253 -232 231 -178 446 -345 911
-707 105 -82 202 -156 215 -164 21 -13 30 -8 157 91 125 98 754 587 1097 852
92 71 154 126 157 139 2 12 20 161 40 332 l35 310 77 80 c43 44 128 132 190
195 l112 115 16 220 c28 408 45 655 45 665 0 6 -37 52 -83 103 -159 178 -147
159 -147 240 0 58 10 104 49 232 27 88 77 252 111 365 34 113 72 239 85 280
13 41 38 122 55 180 18 58 47 155 66 215 69 225 115 387 111 391 -2 2 -66 -62
-142 -143 -76 -82 -195 -208 -264 -281 -69 -74 -140 -157 -157 -185 -17 -29
-49 -83 -71 -122 -23 -38 -73 -126 -113 -194 l-73 -123 -24 31 c-45 57 -259
306 -275 319 -8 7 -117 52 -241 101 l-225 88 -74 77 -74 77 -428 -3 -428 -3
-72 -77 -71 -77 -215 -81 c-118 -45 -225 -88 -236 -95 -12 -8 -81 -85 -154
-172 -73 -87 -138 -164 -145 -171 -10 -11 -27 13 -90 120 -43 73 -85 147 -95
163 -10 17 -34 58 -53 93 -52 91 -43 80 -313 369 -137 146 -253 272 -257 279
-12 20 -30 17 -24 -3z m291 -337 c213 -227 229 -247 291 -356 26 -47 88 -154
138 -237 88 -148 92 -152 110 -135 11 9 85 93 164 185 154 179 150 176 298
231 333 125 311 115 382 194 l65 72 416 0 417 0 75 -74 75 -75 210 -81 c115
-44 219 -87 231 -95 13 -8 91 -93 174 -190 84 -97 157 -174 164 -172 11 3 142
215 238 386 54 96 129 183 401 466 l106 110 -25 -80 c-14 -44 -56 -183 -93
-310 -104 -346 -192 -636 -265 -873 -54 -174 -66 -225 -66 -281 0 -79 4 -85
144 -241 77 -85 85 -99 86 -135 1 -74 -51 -810 -58 -827 -4 -9 -86 -99 -182
-199 -96 -100 -179 -189 -184 -198 -6 -9 -27 -160 -48 -336 -35 -296 -40 -321
-61 -338 -12 -10 -53 -42 -92 -71 -87 -67 -131 -101 -380 -296 -109 -85 -221
-173 -249 -194 -119 -91 -406 -314 -466 -361 -36 -28 -84 -66 -106 -83 l-42
-32 -128 98 c-71 55 -276 213 -456 353 -180 140 -427 332 -550 428 l-224 173
-38 322 c-21 176 -41 326 -45 333 -3 6 -88 97 -188 201 -176 183 -182 191
-188 238 -6 51 -55 762 -55 801 0 14 41 68 112 149 l112 127 7 71 c6 67 3 81
-48 246 -143 460 -393 1293 -393 1308 0 8 -9 17 214 -222z"/>
<path d="M3153 7447 c6 -16 97 -312 177 -577 34 -113 93 -306 132 -430 69
-225 75 -252 70 -365 l-3 -60 -115 -129 c-113 -127 -115 -129 -109 -170 2 -23
14 -185 25 -361 30 -479 8 -405 168 -570 75 -77 160 -165 189 -195 l52 -55 36
-319 c20 -176 38 -323 40 -327 3 -3 30 -26 62 -50 84 -64 740 -573 1006 -781
125 -98 232 -178 236 -178 5 0 89 62 187 138 318 245 1048 813 1087 845 l38
32 20 170 c10 94 26 238 35 320 18 175 -10 130 242 386 l154 156 9 124 c38
512 47 704 34 724 -7 11 -59 71 -114 133 l-101 112 0 91 c0 98 6 120 297 1068
46 151 82 276 80 278 -7 6 -271 -279 -293 -317 -165 -279 -318 -536 -321 -540
-3 -3 -11 3 -18 13 -7 10 -90 107 -184 215 -165 191 -173 198 -233 221 -387
147 -383 145 -456 221 l-67 70 -394 0 -394 0 -67 -72 c-53 -58 -78 -77 -121
-92 -30 -11 -132 -50 -227 -86 l-173 -67 -85 -99 c-47 -55 -129 -150 -182
-211 -53 -62 -100 -113 -103 -113 -4 0 -32 44 -63 98 -74 133 -217 375 -258
439 -18 28 -89 112 -158 187 -113 124 -150 157 -137 123z m2283 -240 c2 -1 -5
-36 -16 -77 -10 -41 -45 -205 -76 -365 -65 -322 -52 -293 -166 -381 l-57 -44
-76 60 c-42 34 -80 71 -85 83 -5 12 -24 92 -41 177 -17 85 -46 229 -66 320
-19 91 -37 181 -40 200 l-5 35 312 -2 c172 -2 314 -4 316 -6z m-661 -59 c8
-51 109 -535 131 -630 17 -70 33 -89 172 -197 l42 -33 73 56 c132 101 125 87
180 344 27 125 61 286 75 358 15 72 32 132 37 134 6 1 22 -13 37 -31 l27 -34
-60 -260 c-33 -143 -70 -305 -83 -360 l-22 -100 -131 -102 -130 -101 -84 66
c-47 37 -105 83 -131 102 -46 34 -48 37 -69 130 -12 52 -50 214 -84 360 l-63
265 30 38 c16 20 33 37 38 37 5 0 11 -19 15 -42z m-142 -125 c6 -56 144 -650
155 -670 8 -13 290 -234 322 -253 12 -6 49 17 141 88 69 54 142 108 162 122
20 14 39 30 41 37 6 15 116 480 147 621 12 56 26 102 30 102 4 0 29 -10 56
-21 26 -12 107 -43 178 -70 116 -43 130 -50 129 -71 0 -13 -17 -99 -37 -193
-20 -93 -45 -210 -56 -260 -15 -70 -24 -94 -42 -107 -13 -10 -118 -82 -234
-162 l-210 -144 -50 -134 -50 -133 -90 -12 c-49 -6 -134 -12 -188 -12 -113 -1
-94 -21 -166 171 l-46 121 -90 63 c-49 35 -154 107 -233 160 -90 62 -144 105
-147 118 -2 12 -16 77 -29 146 -34 167 -75 361 -82 381 -3 10 3 19 13 24 10 3
72 26 138 50 66 24 140 53 165 64 25 11 50 21 56 21 6 0 14 -21 17 -47z
m-1163 -139 c0 -2 10 -21 23 -42 13 -20 41 -68 62 -107 41 -75 150 -266 250
-435 34 -58 89 -155 123 -216 34 -61 70 -118 80 -126 9 -9 73 -32 142 -52
l125 -36 196 -196 c108 -108 201 -195 207 -193 6 2 35 27 64 54 29 28 72 67
96 88 l42 37 165 0 c91 0 165 -4 165 -9 0 -5 -81 -82 -180 -172 l-180 -163
198 -193 197 -192 -171 -1 -172 0 -115 117 -115 117 -116 -112 -116 -112 -180
0 c-99 0 -180 3 -179 8 0 4 19 22 42 40 23 19 117 101 209 183 l166 149 -166
162 c-92 88 -173 169 -180 179 -12 17 -11 19 10 19 13 0 30 5 38 10 13 8 12
11 -5 24 -22 17 -18 16 -230 81 -82 26 -155 52 -162 58 -6 7 -35 80 -63 162
-108 315 -163 475 -211 615 -27 80 -65 187 -84 239 -43 114 -44 129 -5 68 17
-26 30 -50 30 -53z m3244 -261 c-65 -186 -152 -437 -194 -558 l-77 -219 -334
-102 c-184 -56 -399 -121 -479 -144 -80 -24 -219 -67 -310 -96 -90 -29 -167
-51 -169 -48 -3 3 51 58 119 124 103 97 134 121 175 133 51 16 217 65 445 132
69 20 175 52 235 71 l110 33 186 323 c103 178 236 409 295 515 60 106 110 188
112 183 2 -6 -49 -162 -114 -347z m-2495 35 c69 -348 67 -342 109 -370 123
-83 335 -229 383 -265 54 -40 58 -45 98 -154 l42 -112 -23 -16 c-13 -8 -51
-39 -85 -68 -34 -29 -66 -53 -70 -53 -4 0 -84 76 -178 169 l-170 169 -125 35
c-137 39 -130 34 -194 147 -23 41 -74 131 -114 199 l-72 124 45 51 c24 28 102
119 172 203 70 83 131 152 134 152 3 1 25 -95 48 -211z m2004 35 c80 -93 157
-179 171 -192 14 -14 26 -30 26 -36 0 -6 -25 -54 -56 -106 -31 -51 -86 -146
-121 -209 -36 -63 -66 -116 -67 -117 -1 -1 -166 -51 -366 -112 -201 -60 -373
-113 -382 -116 -24 -9 -24 -9 18 95 l36 90 121 85 c67 47 174 120 237 163
l115 77 11 55 c6 30 30 147 53 260 44 216 48 230 55 230 3 0 70 -75 149 -167z
m367 -1089 c-8 -272 -14 -382 -23 -390 -238 -216 -481 -438 -581 -534 -72 -68
-131 -119 -133 -113 -2 5 18 63 44 128 l48 119 100 83 c55 45 157 128 227 185
70 57 130 112 133 123 3 11 21 139 39 285 21 165 38 266 45 268 16 5 44 63 71
147 25 77 30 88 36 82 2 -2 0 -175 -6 -383z m-2899 279 c17 -53 42 -106 54
-117 19 -19 25 -51 54 -281 18 -143 35 -268 37 -277 3 -9 48 -51 100 -93 l96
-77 -38 -39 -37 -38 -46 39 c-25 22 -91 82 -146 134 l-100 94 -7 318 c-4 176
-9 345 -11 377 -2 31 0 57 4 57 4 0 22 -44 40 -97z m-77 -877 c21 -55 53 -135
71 -177 18 -43 31 -80 28 -83 -2 -2 -56 51 -118 117 -98 104 -115 128 -119
162 -3 22 -15 186 -26 364 -23 366 -31 315 65 428 l50 59 5 -385 5 -386 39
-99z m3136 779 l61 -75 -21 -353 c-11 -193 -24 -360 -28 -369 -8 -19 -223
-240 -229 -235 -2 2 28 85 67 185 l70 181 3 375 c1 206 5 372 9 370 4 -3 35
-38 68 -79z m-2844 -71 c27 -9 52 -19 56 -23 4 -3 16 -82 27 -176 l21 -170 53
-50 c28 -28 70 -65 92 -82 l40 -32 -47 -47 c-56 -57 -56 -57 -166 44 l-72 67
-30 233 c-31 241 -32 252 -27 252 2 0 26 -7 53 -16z m2490 -1 c-2 -10 -14 -92
-26 -183 -34 -266 -38 -291 -53 -304 -61 -48 -426 -358 -439 -373 -10 -11 -45
-100 -78 -199 -34 -98 -64 -182 -68 -186 -9 -9 -146 -50 -429 -127 l-221 -61
-99 34 c-54 19 -172 58 -263 86 -196 61 -209 66 -215 82 -2 7 -29 83 -61 168
-31 85 -58 163 -61 173 -5 14 2 17 42 17 45 0 50 3 145 91 l98 90 94 -95 93
-96 313 0 c260 0 312 2 305 13 -4 8 -64 66 -133 129 -69 63 -131 122 -139 132
-13 16 -12 17 10 12 89 -19 488 -88 584 -101 l50 -6 192 161 c163 136 193 166
197 193 3 18 12 91 21 162 22 183 18 172 73 188 65 20 74 20 68 0z m-241 -190
c-18 -124 -26 -146 -61 -170 -16 -10 -49 -38 -74 -63 -89 -90 -165 -148 -208
-160 -48 -12 -92 -8 -331 36 -121 22 -141 23 -211 13 -94 -15 -114 -10 -179
41 -85 67 -83 126 5 167 47 21 64 24 112 18 31 -3 74 -11 95 -17 l37 -11 0
-59 0 -59 45 -20 c82 -36 152 -35 330 5 270 61 305 77 346 158 16 32 20 56 18
112 -3 96 -3 94 33 116 27 16 35 17 46 7 10 -11 10 -32 -3 -114z m-151 -29
c-20 -38 -44 -76 -53 -85 -10 -10 -107 -37 -248 -69 l-233 -51 -42 28 c-24 16
-51 32 -60 36 -33 12 -18 23 55 40 74 18 148 40 442 131 94 29 171 49 173 45
2 -4 -14 -38 -34 -75z m-1786 -38 c103 -104 114 -125 92 -167 -7 -13 -21 -19
-45 -19 -27 0 -44 10 -93 58 -50 48 -62 66 -72 110 -12 51 -7 122 9 122 4 0
53 -47 109 -104z m-328 -591 c52 -50 175 -164 273 -255 200 -184 225 -220 252
-363 21 -108 21 -483 1 -532 -16 -36 -42 -55 -78 -55 -23 0 -278 188 -369 272
l-46 43 -32 305 c-18 168 -35 318 -38 334 -5 27 1 24 76 -44 47 -44 83 -85 86
-100 5 -23 10 -72 36 -325 5 -55 12 -107 15 -115 4 -13 183 -159 206 -168 12
-5 10 377 -2 417 -16 58 -56 104 -213 248 -242 221 -235 212 -295 355 -29 70
-55 135 -59 145 -6 19 25 -8 187 -162z m2582 -1 c-38 -93 -72 -185 -75 -204
-7 -35 -77 -664 -77 -685 0 -7 -46 -47 -102 -91 -56 -43 -145 -113 -197 -154
-53 -42 -111 -86 -128 -98 l-33 -23 0 400 0 400 177 163 c98 90 249 231 338
315 88 83 161 150 163 148 1 -1 -28 -78 -66 -171z m-2186 -39 c11 -7 26 -26
31 -42 60 -160 80 -219 77 -222 -3 -4 -89 74 -257 232 l-62 58 95 -6 c53 -3
104 -12 116 -20z m1494 -514 c0 -48 -1 -50 -72 -116 l-73 -67 -8 47 c-4 27 -7
69 -5 94 l3 46 60 22 c91 33 95 32 95 -26z m-1202 19 c26 -11 106 -38 177 -60
72 -22 141 -49 155 -59 14 -10 37 -40 52 -67 26 -46 28 -57 28 -170 l0 -121
-63 -33 -63 -32 69 -212 c37 -116 93 -281 123 -366 30 -85 54 -161 54 -167 0
-7 -45 24 -100 70 -116 95 -104 71 -205 399 -37 117 -68 215 -71 217 -2 3 -21
-3 -40 -13 l-37 -17 5 -154 c3 -85 3 -155 0 -155 -2 0 -36 25 -75 56 l-72 55
0 425 c0 233 4 424 8 424 5 0 29 -9 55 -20z m-404 -150 c1 -30 -3 -57 -9 -60
-6 -3 -11 26 -12 75 -2 65 -1 76 9 60 6 -10 12 -44 12 -75z m1328 50 l38 -41
0 -360 c0 -407 -4 -441 -67 -510 -37 -41 -282 -244 -287 -238 -3 4 -79 247
-101 324 -21 72 -19 655 2 701 27 59 56 76 211 120 81 23 151 42 156 43 5 0
26 -17 48 -39z m278 -368 l0 -319 -77 -61 -78 -61 -3 282 c-2 155 0 301 3 324
5 36 15 48 73 97 37 30 70 56 75 56 4 0 7 -143 7 -318z"/>
<path d="M4930 4669 c-22 -29 -22 -31 -4 -44 11 -8 22 -15 25 -15 3 0 43 -24
88 -54 l82 -55 97 61 c53 33 101 64 105 68 10 9 -20 60 -34 60 -5 0 -43 -23
-86 -50 -42 -28 -83 -48 -90 -46 -7 3 -46 28 -87 56 l-75 50 -21 -31z"/>
<path d="M6086 4433 c-139 -130 -187 -183 -167 -183 5 0 25 7 45 15 29 12 37
13 41 3 3 -7 6 -95 7 -195 l3 -182 70 55 c39 31 76 62 83 68 8 8 19 70 28 162
8 82 21 202 30 268 8 65 13 120 11 122 -2 3 -70 -57 -151 -133z"/>
<path d="M4624 4140 l36 -40 0 -120 c0 -66 4 -120 9 -120 5 0 45 16 89 36 l80
36 4 66 c3 37 2 75 -1 85 -5 12 -45 31 -121 57 -63 22 -119 40 -124 40 -4 0 8
-18 28 -40z"/>
<path d="M5315 4091 l-90 -27 -3 -393 c-2 -316 0 -392 10 -384 7 5 46 36 86
67 l72 58 0 319 c0 257 3 326 14 354 8 19 12 35 8 34 -4 -1 -47 -13 -97 -28z"/>
</g>
</svg>
